# xmcd CD database file
#
# Track frame offsets:
#	150
#	12887
#	26576
#	40086
#	51458
#	66779
#	80502
#	92879
#	108328
#	123015
#	134675
#	147374
#	164197
#
# Disc length: 2346 seconds
#
# Revision: 0
# Processed by: cddbd v1.5.2PL0 Copyright (c) Steve Scherf et al.
# Submitted via: CDex 1.70beta2
#
DISCID=b709280d
DTITLE=Jenny&Friends - Jenny Dreamed Of Trains
DYEAR=2001
DGENRE=Country
TTITLE0=Sweet Smile
TTITLE1=Don' t Come Cryin' To Me
TTITLE2=Brother Jukebox
TTITLE3=That' s What I Like About You
TTITLE4=Long Hard Road
TTITLE5=One Dance With You
TTITLE6=Wheels Of Love
TTITLE7=I Just Want To Dance With You
TTITLE8=Sea Of Heartbreak
TTITLE9=If I Could Only Win Your Love
TTITLE10=Get Rhythm
TTITLE11=Jenny Dreamed Of Trains
TTITLE12=Applejack
EXTD=YEAR: 2001
EXTT0=
EXTT1=
EXTT2=
EXTT3=
EXTT4=
EXTT5=
EXTT6=
EXTT7=
EXTT8=
EXTT9=
EXTT10=
EXTT11=
EXTT12=
PLAYORDER=
